<svg xmlns="http://www.w3.org/2000/svg" width="180" height="60" viewBox="0 0 180 60">
  <g fill="none" fill-rule="evenodd">
    <rect width="180" height="60" fill="#000" rx="8"/>
    <g fill="#FFF" transform="translate(42 12)">
      <path d="M14.1 27.9c-.3.7-.5 1.2-.8 1.7-.4.8-.9 1.4-1.5 1.9-.8.7-1.6 1.1-2.5 1.1-.6 0-1.4-.2-2.3-.6-.9-.4-1.7-.6-2.4-.6-.8 0-1.6.2-2.5.6-.9.4-1.6.6-2.1.6-1 0-1.9-.4-2.7-1.2C-2.5 30.7-3 30-3.4 29c-.8-1.6-1.2-3.3-1.2-5.1 0-2 .4-3.7 1.3-5 .7-1 1.5-1.8 2.6-2.3 1-.5 2.1-.8 3.3-.8.7 0 1.5.2 2.5.5.9.4 1.5.5 1.8.5.4 0 1.1-.2 2.1-.6 1.1-.4 2-.6 2.8-.5 2 .2 3.5.9 4.5 2.2-1.8 1.1-2.7 2.6-2.7 4.5 0 1.5.5 2.7 1.6 3.7.5.5 1 .8 1.6 1.1-.1.4-.3.8-.5 1.2zM10.4 3.6c0 1.2-.4 2.3-1.2 3.2-.8 1.2-1.8 1.9-3 1.9 0-1.5.4-2.7 1.2-3.7.4-.5.9-.9 1.5-1.2.6-.3 1.2-.5 1.7-.5 0 .1 0 .2 0 .3h-.2z"/>
      <text font-family="SFProDisplay-Regular, SF Pro Display" font-size="11">
        <tspan x="32" y="14">Download on the</tspan>
      </text>
      <text font-family="SFProDisplay-Bold, SF Pro Display" font-size="20" font-weight="bold">
        <tspan x="32" y="35">App Store</tspan>
      </text>
    </g>
  </g>
</svg>
