<svg xmlns="http://www.w3.org/2000/svg" width="180" height="60" viewBox="0 0 180 60">
  <g fill="none" fill-rule="evenodd">
    <rect width="180" height="60" fill="#000" rx="8"/>
    <g fill="#FFF" transform="translate(42 12)">
      <path d="M3.4 2.7L22.5 21.8 3.4 40.9c-.7-.4-1.1-1.1-1.1-1.9V4.6c0-.8.4-1.5 1.1-1.9zm21.3 20.7l5.5 5.5-19.1 10.9-7.7-7.7 21.3-8.7zm.7-.7L4.1 14l7.7-7.7 19.1 10.9-5.5 5.5zm6.3 6.9c0 .8-.4 1.5-1.1 1.9L11.8 42.3l-7.7-7.7 21.3-8.7 5.5 5.5c.5.3.8.8.8 1.2z"/>
      <text font-family="SFProDisplay-Regular, SF Pro Display" font-size="11">
        <tspan x="32" y="14">GET IT ON</tspan>
      </text>
      <text font-family="SFProDisplay-Bold, SF Pro Display" font-size="20" font-weight="bold">
        <tspan x="32" y="35">Google Play</tspan>
      </text>
    </g>
  </g>
</svg>
