<svg viewBox="0 0 1000 421" xmlns="http://www.w3.org/2000/svg"><g transform="translate(317.647,205.457) scale(13.38448) translate(-50.904,-16)" fill="#000" fill-rule="nonzero"><path d="M85.95 31.44 C85.95,31.44 85.95,31.24 85.95,31.24 C86.74,29.89 88.95,25 89.77,22.97 C89.77,22.97 89.96,22.49 89.96,22.49 C89.96,22.49 85.08,12.07 85.08,12.07 C84.04,9.81 83.64,8.99 82.99,8.29 C82.99,8.29 82.99,8.12 82.99,8.12 C82.99,8.12 90.42,8.12 90.42,8.12 C90.42,8.12 90.42,8.29 90.42,8.29 C90.22,8.4 90.08,8.8 90.08,9.14 C90.08,9.78 90.39,10.46 90.5,10.8 C90.5,10.8 93.13,17.27 93.13,17.27 C93.13,17.27 93.24,17.27 93.24,17.27 C93.24,17.27 95.41,11.53 95.41,11.53 C95.72,10.72 95.98,9.76 95.98,9.11 C95.98,8.66 95.75,8.37 95.64,8.29 C95.64,8.29 95.64,8.12 95.64,8.12 C95.64,8.12 100.89,8.12 100.89,8.12 C100.89,8.12 100.89,8.29 100.89,8.29 C100.35,9.11 99.37,11.42 98.57,13.31 C98.57,13.31 91.15,31.44 91.15,31.44 C91.15,31.44 85.95,31.44 85.95,31.44z"/><path d="M75.72 21.71 C75.72,21.71 75.72,21.54 75.72,21.54 C76.25,20.6 76.42,20.01 76.42,18.77 C76.42,18.77 76.42,6.06 76.42,6.06 C76.42,5.08 76.18,4.15 75.8,3.69 C75.8,3.69 75.8,3.52 75.8,3.52 C77.28,3.41 81,1.87 82.09,0.86 C82.09,0.86 82.31,0.97 82.31,0.97 C82.05,1.77 81.84,4.27 81.84,5.64 C81.84,5.64 81.84,18.43 81.84,18.43 C81.84,19.53 82.07,20.58 82.55,21.56 C82.55,21.56 82.55,21.71 82.55,21.71 C82.55,21.71 75.72,21.71 75.72,21.71z"/><path d="M67.38 21.7 C67.38,21.7 67.38,21.53 67.38,21.53 C67.91,20.6 68.08,20 68.08,18.76 C68.08,18.76 68.08,12.44 68.08,12.44 C68.08,11.48 67.88,10.4 67.46,9.87 C67.46,9.87 67.46,9.7 67.46,9.7 C68.83,9.6 72.46,8.25 73.36,7.41 C73.36,7.41 73.5,7.5 73.5,7.5 C73.5,7.5 73.5,18.42 73.5,18.42 C73.5,19.52 73.73,20.57 74.21,21.56 C74.21,21.56 74.21,21.7 74.21,21.7 C74.21,21.7 67.38,21.7 67.38,21.7z"/><path d="M73.5 5.25 C72.63,6.03 69.42,7.43 67.91,7.61 C67.91,7.61 67.91,3.2 67.91,3.2 C69.26,2.87 72.54,1.49 73.5,0.84 C73.5,0.84 73.5,5.25 73.5,5.25z"/><path d="M49.18 17.91 C49.18,15.32 51.27,14.58 54.26,14.19 C56.49,13.88 59.85,13.54 59.85,12.41 C59.85,11.42 58.47,11 56.57,11 C54.17,11 52.14,11.68 50.9,12.3 C50.9,12.3 50.9,8.54 50.9,8.54 C52.87,7.92 54.91,7.61 57.82,7.61 C61.43,7.61 65.27,8.4 65.27,13.06 C65.27,13.06 65.27,18.08 65.27,18.08 C65.27,19.27 65.35,20.4 65.95,21.56 C65.95,21.56 65.95,21.7 65.95,21.7 C65.95,21.7 59.85,21.7 59.85,21.7 C59.85,21.7 59.85,19.24 59.85,19.24 C59.06,20.54 57.36,22.07 54.51,22.07 C51.41,22.07 49.18,20.43 49.18,17.91z M54.65 17.32 C54.65,18.59 55.47,19.04 56.63,19.04 C57.79,19.04 59.14,18.59 59.85,17.94 C59.85,17.94 59.85,14.72 59.85,14.72 C59.17,15.32 57.59,15.63 56.38,15.8 C55.19,15.99 54.65,16.48 54.65,17.32z"/><path d="M38 22.04 C33.94,22.04 31.44,21.33 29.04,20.51 C29.04,20.51 28.63,16.16 28.63,16.16 C28.63,16.16 28.77,16.11 28.77,16.11 C31.06,17.46 34.73,18.2 37.52,18.2 C40.54,18.2 41.76,17.46 41.76,16.36 C41.76,15.37 40.37,15.12 39.3,14.95 C39.3,14.95 34.92,14.22 34.92,14.22 C31.9,13.71 28.63,12.58 28.63,8.77 C28.63,4.22 33.37,2.22 38.59,2.22 C41.78,2.22 44.97,2.7 46.95,3.69 C46.95,3.69 45.4,7.47 45.4,7.47 C43.25,6.4 40.57,5.89 38.45,5.89 C35.77,5.89 34.73,6.59 34.73,7.5 C34.73,8.54 35.97,8.77 37.01,8.94 C37.01,8.94 40.99,9.62 40.99,9.62 C45.09,10.27 47.99,11.62 47.99,15.12 C47.99,20.06 43.08,22.04 38,22.04z"/></g></svg>